<?xml version="1.0" encoding="utf-8"?>
<!-- Generator: Adobe Illustrator 23.0.1, SVG Export Plug-In . SVG Version: 6.00 Build 0)  -->
<svg version="1.1" id="圖層_1" xmlns="http://www.w3.org/2000/svg" xmlns:xlink="http://www.w3.org/1999/xlink" x="0px" y="0px"
	 viewBox="0 0 3000 3000" style="enable-background:new 0 0 3000 3000;" xml:space="preserve">
<style type="text/css">
	.st0{fill:#767676;}
	.st1{fill:#C9BAAB;}
	.st2{fill:none;stroke:#8D8D8D;stroke-width:50;stroke-miterlimit:10;}
</style>
<path class="st0" d="M2232.74,1431.43h-186.7c-6.16,0-8.21,2.15-8.21,6.43l-535.49,1241.66c-2.05,6.43-14.36,6.43-16.41,0
	L962.75,1437.86c-2.05-4.29-6.16-6.43-8.21-6.43H769.89c-6.15,0-8.21,2.15-8.21,8.58c0,236.6-1.82,832.32-2.03,1151.67
	c2.16,1.37,4.24,3.26,6.17,5.8c21.01,27.57,43.89,53.21,67.68,77.95v-988.8c0-8.58,12.31-12.87,18.47-2.14l491.13,1170.18
	c15.65,0.55,31.3,1.36,46.93,2.28c38.97,0.41,77.97,0.04,116.91,1.39l518.59-1203.87c6.15-8.58,18.47-6.43,18.47,4.29L2047,2754
	c32.87-30.63,61.63-13.45,92.59-46c38.32-40.29,64.67-93.29,103.41-133V1442.15C2243,1435.72,2238.9,1431.43,2232.74,1431.43z"/>
<path class="st1" d="M2169.14,331v846.37c0,8.58-12.31,12.87-18.47,2.14l-421-1003.08c-62.41-0.45-124.83-1.12-187.24-1.83
	c-39.64-0.45-79.28-0.91-118.93-1.34l-446.4,1036.28c-6.15,8.58-18.47,6.43-18.47-4.29V252.94
	c-73.11,56.15-137.4,123.75-199.01,193.11v975.8c0,6.43,4.1,10.72,10.26,10.72h186.7c6.16,0,8.21-2.15,8.21-6.43l535.49-1241.66
	c2.05-6.43,14.36-6.43,16.41,0l523.18,1241.66c2.05,4.29,6.16,6.43,8.21,6.43h184.65c6.15,0,8.21-2.15,8.21-8.58
	c0-209.23,1.43-689.14,1.9-1006.99C2221.72,381.41,2197.23,359.94,2169.14,331z"/>
<path class="st2" d="M1695.09,2849.07h-390.75c-385,0-700-315-700-700V852.39c0-385,315-700,700-700h390.75c385,0,700,315,700,700
	v1296.68C2395.09,2534.07,2080.09,2849.07,1695.09,2849.07z"/>
</svg>
