<?xml version="1.0" encoding="utf-8"?>
<!-- Generator: Adobe Illustrator 23.0.1, SVG Export Plug-In . SVG Version: 6.00 Build 0)  -->
<svg version="1.1" id="圖層_1" xmlns="http://www.w3.org/2000/svg" xmlns:xlink="http://www.w3.org/1999/xlink" x="0px" y="0px"
	 viewBox="0 0 195 25" style="enable-background:new 0 0 195 25;" xml:space="preserve">
<style type="text/css">
	.st0{display:none;}
	.st1{fill:#333333;}
	.st2{fill:none;stroke:#333333;stroke-width:1.2693;stroke-linecap:round;stroke-linejoin:round;}
	.st3{fill:none;stroke:#333333;stroke-width:1.3;stroke-linecap:round;stroke-linejoin:round;stroke-miterlimit:10;}
</style>
<rect class="st0" width="25" height="25"/>
<rect x="25" class="st0" width="25" height="25"/>
<rect x="50" class="st0" width="25" height="25"/>
<rect x="75" class="st0" width="25" height="25"/>
<rect x="100" class="st0" width="25" height="25"/>
<path class="st1" d="M41.8,12.4c0.9-1,1.5-2.4,1.5-3.8c0-3.2-2.6-5.8-5.8-5.8s-5.8,2.6-5.8,5.8s2.6,5.8,5.8,5.8c1.1,0,2.2-0.3,3-0.9
	c3.1,1.2,5.3,4,5.6,7.4H28.9c0.2-2.2,1.2-4.3,2.9-5.8c0.3-0.3,0.3-0.7,0.1-1c-0.3-0.3-0.7-0.3-1-0.1c-2.2,1.9-3.5,4.7-3.5,7.6
	c0,0.4,0.3,0.7,0.7,0.7h18.7c0.4,0,0.7-0.3,0.7-0.7C47.6,17.5,45.3,14,41.8,12.4z M33.2,8.5c0-2.4,1.9-4.3,4.3-4.3s4.3,1.9,4.3,4.3
	s-1.9,4.3-4.3,4.3S33.2,10.9,33.2,8.5z"/>
<path class="st1" d="M22.2,21.1l-4.8-4.8c1.2-1.4,1.9-3.3,1.9-5.3c0-4.6-3.7-8.3-8.3-8.3S2.7,6.4,2.7,11s3.7,8.3,8.3,8.3
	c2,0,3.9-0.7,5.3-1.9l4.8,4.8c0.2,0.2,0.3,0.2,0.5,0.2s0.4-0.1,0.5-0.2C22.5,21.9,22.5,21.4,22.2,21.1z M4.1,10.9
	c0-3.8,3.1-6.8,6.8-6.8c3.8,0,6.8,3.1,6.8,6.8c0,3.8-3.1,6.8-6.8,6.8S4.1,14.7,4.1,10.9z"/>
<g>
	<circle class="st2" cx="59" cy="20.3" r="1.7"/>
	<circle class="st2" cx="69.4" cy="20.3" r="1.7"/>
	<path class="st2" d="M57,7.3h15l-1.5,7.3c-0.2,0.8-0.9,1.4-1.7,1.4h-9.1c-0.9,0-1.6-0.6-1.7-1.5l-1.3-10C56.5,3.6,55.8,3,54.9,3H53
		"/>
</g>
<polyline class="st3" points="96.4,17 87.5,8 78.6,17 "/>
<line class="st3" x1="105.1" y1="5.1" x2="119.9" y2="19.9"/>
<line class="st3" x1="119.9" y1="5.1" x2="105.1" y2="19.9"/>
</svg>
